HIERARCHY
ROOT Hips
{
	OFFSET 0.00000 0.00000 0.00000
	CHANNELS 6 Xposition Yposition Zposition Yrotation Zrotation Xrotation 
	JOINT Lumbar
	{
		OFFSET 0 0 0
		CHANNELS 3 Zrotation Xrotation Yrotation
		JOINT Neck
		{
			OFFSET 0.00 0.2701 0.00
			CHANNELS 3 Zrotation Xrotation Yrotation
			End Site
			{
				OFFSET 0.00 0.1379 0.00
			}
		}
		JOINT RightShoulder
		{
			OFFSET 0.0119 0.2289 0.1181
			CHANNELS 3 Zrotation Xrotation Yrotation
			JOINT RightElbow
			{
				OFFSET 0.00 -0.1475 0.00
				CHANNELS 2 Zrotation Yrotation
				JOINT RightWrist
				{
					OFFSET 0.00 -0.1605 0.00
					CHANNELS 2 Zrotation Xrotation
					End Site
					{
						OFFSET 0.0040 -0.1068 0.0006
					}
				}
			}
		}
		JOINT LeftShoulder
		{
			OFFSET 0.0119 0.2289 -0.1181
			CHANNELS 3 Zrotation Xrotation Yrotation
			JOINT LeftElbow
			{
				OFFSET 0.00 -0.1475 0.00
				CHANNELS 2 Zrotation Yrotation
				JOINT LeftWrist
				{
					OFFSET 0.00 -0.1605 0.00
					CHANNELS 2 Zrotation Xrotation
					End Site
					{
						OFFSET 0.0040 -0.1068 -0.0006
					}
				}
			}
		}
	}
	JOINT RightHip
	{
		OFFSET 0.0316 -0.0424 0.0458
		CHANNELS 3 Zrotation Xrotation Yrotation
		JOINT RightKnee
		{
			OFFSET 0.00 -0.2438 0.00
			CHANNELS 1 Zrotation
			JOINT RightAnkle
			{
				OFFSET 0.00 -0.2449 0.00
				CHANNELS 3 Zrotation Xrotation Yrotation
				End Site
				{
					OFFSET 0.1237 -0.0542 0.0051
				}
			}
		}
	}
	JOINT LeftHip
	{
		OFFSET 0.0316 -0.0424 -0.0458
		CHANNELS 3 Zrotation Xrotation Yrotation
		JOINT LeftKnee
		{
			OFFSET 0.00 -0.2438 0.00
			CHANNELS 1 Zrotation
			JOINT LeftAnkle
			{
				OFFSET 0.00 -0.2449 0.00
				CHANNELS 3 Zrotation Xrotation Yrotation
				End Site
				{
					OFFSET 0.1237 -0.0542 -0.0051
				}
			}
		}
	}
}
MOTION
Frames: 25
Frame Time: 0.02
0.00021 6e-05 1e-05 21.42578 -23.43178 -6.75587 42.50492 2.93992 -4.15835 -15.76545 -0.63149 -0.46597 70.17669 -99.05612 64.16942 5.54305 98.43735 9.19178 1.48415 80.77792 97.72701 -64.17117 5.32864 -102.39555 9.48257 -1.99277 39.18772 -0.33086 -4.54503 -22.23928 -6.89137 -3.8694 -2.68505 43.15673 7.04539 1.62776 -27.44632 -6.59647 3.39709 2.41459
0.00019 5e-05 3e-05 21.43491 -23.44852 -6.76892 42.51856 2.93872 -4.16347 -15.77034 -0.6411 -0.46617 70.21893 -99.03686 64.16943 5.55477 98.43627 9.19064 1.49473 81.22326 97.70671 -64.17117 5.32864 -102.45881 9.50109 -2.06612 39.20458 -0.35411 -4.70624 -22.24302 -6.88441 -3.85106 -2.67371 43.18642 7.06258 1.65575 -27.45786 -6.59568 3.39297 2.41123
0.00017 4e-05 4e-05 21.44402 -23.46516 -6.78192 42.5321 2.93751 -4.16856 -15.77521 -0.65069 -0.46637 70.26121 -99.01764 64.16943 5.56646 98.43521 9.18948 1.50528 81.66747 97.68648 -64.17117 5.32863 -102.52191 9.51954 -2.13926 39.22134 -0.37729 -4.86696 -22.24676 -6.87747 -3.83278 -2.6624 43.21597 7.07972 1.68367 -27.46937 -6.5949 3.38886 2.40787
0.00015 2e-05 6e-05 21.45312 -23.48184 -6.79492 42.54568 2.93631 -4.17366 -15.78008 -0.66028 -0.46657 70.30334 -98.99843 64.16944 5.57815 98.43413 9.18834 1.51582 82.11149 97.66624 -64.17117 5.32863 -102.58498 9.53801 -2.21238 39.23814 -0.40046 -5.02766 -22.25049 -6.87053 -3.8145 -2.65109 43.24555 7.09686 1.71159 -27.48088 -6.59412 3.38476 2.40452
0.00013 1e-05 8e-05 21.46224 -23.49864 -6.80797 42.55938 2.93511 -4.17879 -15.78496 -0.66988 -0.46677 70.34538 -98.9792 64.16945 5.58988 98.43305 9.18725 1.5264 82.5565 97.64594 -64.17117 5.32862 -102.64819 9.55655 -2.28569 39.25506 -0.42371 -5.18887 -22.25424 -6.86358 -3.79617 -2.63974 43.2753 7.11403 1.73953 -27.49244 -6.59334 3.38066 2.40117
0.00011 -0 9e-05 21.47132 -23.51496 -6.82088 42.57257 2.93387 -4.18378 -15.7898 -0.67944 -0.46697 70.38815 -98.95997 64.16946 5.60149 98.43202 9.18592 1.53689 82.99899 97.62584 -64.17117 5.32862 -102.71105 9.57478 -2.35846 39.2715 -0.44676 -5.3486 -22.25794 -6.85668 -3.778 -2.6285 43.30445 7.13109 1.76742 -27.50385 -6.59254 3.37653 2.39779
8e-05 -2e-05 0.00011 21.48048 -23.53219 -6.83404 42.58677 2.93273 -4.18905 -15.79473 -0.68909 -0.46717 70.42937 -98.94078 64.16946 5.61331 98.43088 9.18508 1.54753 83.44611 97.60537 -64.17117 5.32861 -102.77456 9.59364 -2.43225 39.28886 -0.47015 -5.51103 -22.26173 -6.84967 -3.75953 -2.61706 43.33473 7.14838 1.79545 -27.51552 -6.59177 3.37246 2.39447
6e-05 -3e-05 0.00012 21.48956 -23.54863 -6.84698 42.60006 2.93149 -4.19407 -15.79957 -0.69865 -0.46736 70.47211 -98.92154 64.16947 5.62495 98.42986 9.18378 1.55804 83.8889 97.58523 -64.17117 5.3286 -102.83746 9.61191 -2.50508 39.30543 -0.49327 -5.67113 -22.26544 -6.84276 -3.74132 -2.6058 43.36404 7.16542 1.82321 -27.52697 -6.59099 3.36835 2.39111
4e-05 -4e-05 0.00014 21.49854 -23.5639 -6.85964 42.61213 2.93014 -4.19877 -15.80432 -0.70811 -0.46756 70.5164 -98.90226 64.16948 5.63634 98.42889 9.18195 1.56838 84.32688 97.56552 -64.17117 5.3286 -102.89966 9.6295 -2.57686 39.3208 -0.51592 -5.82783 -22.26906 -6.836 -3.72347 -2.59478 43.39187 7.18232 1.85123 -27.53811 -6.59017 3.36414 2.38765
2e-05 -6e-05 0.00016 21.50811 -23.58531 -6.87385 42.63091 2.92947 -4.20526 -15.80964 -0.71819 -0.46777 70.55083 -98.88325 64.16948 5.6491 98.42734 9.18326 1.57965 84.79399 97.5434 -64.17117 5.32859 -102.96605 9.65112 -2.65503 39.34236 -0.54082 -6.00242 -22.2732 -6.82846 -3.70371 -2.58245 43.42733 7.20053 1.87954 -27.55091 -6.58949 3.36034 2.3846
-1e-05 -7e-05 0.00017 21.51643 -23.59415 -6.88483 42.63574 2.92732 -4.20799 -15.81371 -0.7269 -0.46795 70.60665 -98.86368 64.16949 5.65897 98.42723 9.17788 1.58901 85.19865 97.52633 -64.17117 5.32859 -103.02348 9.66414 -2.71951 39.35131 -0.56129 -6.14034 -22.27625 -6.82252 -3.68785 -2.57281 43.44726 7.21563 1.90607 -27.56029 -6.58855 3.3558 2.3808
-5e-05 -8e-05 0.00019 21.52135 -23.565 -6.88646 42.60017 2.9215 -4.20026 -15.81487 -0.73248 -0.46807 70.7164 -98.84225 64.16949 5.66086 98.42925 9.15446 1.5926 85.439 97.52352 -64.17117 5.32859 -103.05718 9.65432 -2.74787 39.32158 -0.56682 -6.16755 -22.2761 -6.8213 -3.68379 -2.57139 43.41963 7.22495 1.93737 -27.5594 -6.58654 3.34799 2.3739
-0.0001 -9e-05 0.0002 21.525 -23.52386 -6.88493 42.55095 2.91412 -4.18879 -15.81467 -0.73659 -0.46817 70.84805 -98.8203 64.16949 5.65991 98.43303 9.1243 1.59431 85.61561 97.52568 -64.17117 5.32858 -103.08175 9.63578 -2.76227 39.27993 -0.5684 -6.15962 -22.27489 -6.82163 -3.68345 -2.57254 43.37732 7.23059 1.96509 -27.55522 -6.58432 3.33968 2.36644
-0.00015 -0.0001 0.00021 21.52926 -23.4905 -6.88515 42.50941 2.90717 -4.17913 -15.81472 -0.74095 -0.46828 70.97334 -98.79877 64.1695 5.6602 98.43725 9.09696 1.59728 85.81644 97.52535 -64.17117 5.32858 -103.1099 9.62067 -2.78204 39.24639 -0.57361 -6.17464 -22.27431 -6.82104 -3.68068 -2.57196 43.34501 7.23618 1.9882 -27.55311 -6.58242 3.33237 2.35991
-0.00019 -0.00011 0.00023 21.53347 -23.44734 -6.88404 42.46175 2.90137 -4.16897 -15.8163 -0.74698 -0.46838 71.08535 -98.77643 64.1695 5.66044 98.43639 9.07046 1.59873 86.03605 97.52615 -64.17117 5.32858 -103.14032 9.60755 -2.80565 39.20145 -0.57109 -6.16095 -22.27313 -6.82133 -3.68097 -2.5737 43.29868 7.24924 2.03773 -27.54857 -6.57959 3.32173 2.35054
-0.00026 -0.00012 0.00023 21.53739 -23.42166 -6.88492 42.42345 2.89285 -4.15897 -15.81441 -0.74928 -0.46849 71.22792 -98.75568 64.1695 5.66042 98.44631 9.04083 1.60269 86.20287 97.52562 -64.17117 5.32858 -103.16398 9.58854 -2.81828 39.17742 -0.58368 -6.19767 -22.2729 -6.82021 -3.67584 -2.57129 43.27796 7.24561 2.03124 -27.54829 -6.57865 3.318 2.34694
-0.0004 -0.00015 0.00019 21.54157 -23.44785 -6.8925 42.41555 2.87682 -4.15044 -15.80295 -0.74073 -0.46863 71.46905 -98.73916 64.1695 5.65786 98.48757 9.00221 1.61594 86.22697 97.52134 -64.17117 5.32858 -103.17014 9.5524 -2.80126 39.21422 -0.63942 -6.39127 -22.27577 -6.81443 -3.65441 -2.55617 43.33249 7.19908 1.87333 -27.5609 -6.58272 3.33263 2.35934
-0.00058 -0.00018 0.00012 21.54535 -23.49188 -6.90215 42.41728 2.85819 -4.14217 -15.78814 -0.72861 -0.46877 71.73657 -98.72428 64.1695 5.65561 98.53925 8.96103 1.63144 86.20231 97.51531 -64.17117 5.32858 -103.17001 9.51111 -2.77412 39.27241 -0.7104 -6.63505 -22.27958 -6.80726 -3.62749 -2.5369 43.41306 7.13562 1.65944 -27.57784 -6.58872 3.35432 2.37753
-0.00074 -0.00021 6e-05 21.54889 -23.52735 -6.91053 42.41385 2.84098 -4.13373 -15.77506 -0.71878 -0.46891 71.97914 -98.70888 64.1695 5.65484 98.58489 8.92237 1.64464 86.2084 97.50932 -64.17117 5.32859 -103.17351 9.47424 -2.75352 39.32077 -0.77413 -6.84999 -22.28282 -6.80098 -3.60336 -2.51993 43.48114 7.07819 1.46871 -27.59259 -6.59404 3.37344 2.39317
-0.00089 -0.00023 2e-05 21.55429 -23.56446 -6.92006 42.4134 2.82268 -4.12541 -15.76093 -0.70623 -0.46905 72.27698 -98.69263 64.1695 5.64709 98.63616 8.87784 1.66311 86.1767 97.50675 -64.17118 5.32858 -103.17354 9.42858 -2.72456 39.36934 -0.83913 -7.08945 -22.28664 -6.79364 -3.57808 -2.50128 43.55169 7.02694 1.28459 -27.60823 -6.59861 3.39017 2.40864
-0.00107 -0.00026 -8e-05 21.55557 -23.60235 -6.92787 42.40902 2.80611 -4.11693 -15.74836 -0.69832 -0.4692 72.46593 -98.67842 64.16951 5.65407 98.67809 8.84491 1.67126 86.21208 97.49652 -64.17116 5.32859 -103.17929 9.39977 -2.71037 39.42252 -0.90509 -7.2899 -22.28947 -6.78819 -3.5539 -2.48514 43.62321 6.95975 1.0771 -27.62303 -6.60506 3.41314 2.42561
-0.00137 -0.0003 -0.00033 21.5469 -23.63981 -6.92924 42.39319 2.7942 -4.10801 -15.73955 -0.70579 -0.46937 72.34592 -98.67058 64.16952 5.70104 98.69209 8.84571 1.64952 86.45182 97.46593 -64.1711 5.32864 -103.20341 9.42177 -2.74316 39.4849 -0.97073 -7.373 -22.28942 -6.78806 -3.53351 -2.47679 43.6935 6.8447 0.78661 -27.6348 -6.61744 3.45521 2.44744
-0.00171 -0.00033 -0.00064 21.53386 -23.67718 -6.92905 42.37286 2.78423 -4.09895 -15.73265 -0.71772 -0.46956 72.11604 -98.66453 64.16955 5.76296 98.69624 8.85812 1.61751 86.75927 97.42759 -64.17101 5.32869 -103.23327 9.46039 -2.79051 39.55095 -1.0367 -7.41469 -22.28832 -6.78992 -3.5145 -2.47112 43.76354 6.71554 0.48 -27.64552 -6.63142 3.50267 2.47023
-0.00203 -0.00037 -0.00093 21.52196 -23.71344 -6.93038 42.35348 2.77386 -4.08994 -15.72578 -0.72649 -0.46974 71.937 -98.65695 64.16957 5.8185 98.70459 8.86458 1.59072 87.03189 97.39255 -64.17094 5.32874 -103.26002 9.48948 -2.82886 39.61422 -1.10204 -7.47394 -22.28765 -6.79099 -3.49519 -2.46428 43.83213 6.59831 0.20258 -27.6565 -6.64384 3.54524 2.49114
-0.00234 -0.0004 -0.00119 21.51358 -23.75508 -6.92837 42.33893 2.76146 -4.08096 -15.71509 -0.73993 -0.46991 71.75337 -98.65251 64.1696 5.87237 98.71443 8.87382 1.56157 87.32179 97.35839 -64.17084 5.3288 -103.28906 9.52675 -2.87703 39.68277 -1.16992 -7.54071 -22.28723 -6.79148 -3.47428 -2.45705 43.90809 6.45787 -0.16686 -27.66852 -6.65978 3.59823 2.5182
